<svg width="34" height="30" viewBox="0 0 34 30" fill="none" xmlns="http://www.w3.org/2000/svg">
<path d="M30.2602 3.91505C29.494 3.14856 28.5844 2.54052 27.5832 2.12568C26.582 1.71084 25.5089 1.49731 24.4252 1.49731C23.3414 1.49731 22.2683 1.71084 21.2671 2.12568C20.266 2.54052 19.3563 3.14856 18.5902 3.91505L17.0002 5.50505L15.4102 3.91505C13.8626 2.36751 11.7637 1.49812 9.57518 1.49812C7.38663 1.49812 5.28772 2.36751 3.74018 3.91505C2.19264 5.46259 1.32324 7.5615 1.32324 9.75005C1.32324 11.9386 2.19264 14.0375 3.74018 15.5851L5.33018 17.1751L17.0002 28.8451L28.6702 17.1751L30.2602 15.5851C31.0267 14.8189 31.6347 13.9093 32.0496 12.9081C32.4644 11.9069 32.6779 10.8338 32.6779 9.75005C32.6779 8.66632 32.4644 7.59321 32.0496 6.59202C31.6347 5.59083 31.0267 4.68119 30.2602 3.91505V3.91505Z" stroke="#C1C5D0" stroke-width="2" stroke-linecap="round" stroke-linejoin="round"/>
</svg>
